<svg width="512" height="512" viewBox="0 0 512 512" fill="none" xmlns="http://www.w3.org/2000/svg">
<g clip-path="url(#clip0_1782_6)">
<path d="M163.143 168.286C161.238 163.524 158 160.19 153.429 158.286C148.857 156.381 144.19 156.381 139.429 158.286C118.857 166.667 100.667 178.762 84.8571 194.571C69.0476 210.381 56.9524 228.571 48.5714 249.143C46.6667 253.905 46.6667 258.571 48.5714 263.143C50.4762 267.714 53.8095 270.952 58.5714 272.857C61.0476 273.81 63.3333 274.286 65.4286 274.286C73.4286 274.286 79.1429 270.476 82.5714 262.857C89.0476 246.857 98.4286 232.714 110.714 220.429C123 208.143 137.143 198.762 153.143 192.286C157.905 190.19 161.238 186.857 163.143 182.286C165.048 177.714 165.048 173.048 163.143 168.286ZM432.286 66.5714L445.429 79.7143L375.714 149.143L395.143 168.571C398.762 172.19 400.571 176.524 400.571 181.571C400.571 186.619 398.762 190.952 395.143 194.571L376.857 212.857C393.81 243.524 402.286 276.19 402.286 310.857C402.286 338.095 397 364.143 386.429 389C375.857 413.857 361.571 435.286 343.571 453.286C325.571 471.286 304.143 485.571 279.286 496.143C254.429 506.714 228.381 512 201.143 512C173.905 512 147.857 506.714 123 496.143C98.1429 485.571 76.7143 471.286 58.7143 453.286C40.7143 435.286 26.4286 413.857 15.8571 389C5.28571 364.143 0 338.095 0 310.857C0 283.619 5.28571 257.571 15.8571 232.714C26.4286 207.857 40.7143 186.429 58.7143 168.429C76.7143 150.429 98.1429 136.143 123 125.571C147.857 115 173.905 109.714 201.143 109.714C235.81 109.714 268.476 118.19 299.143 135.143L317.429 116.857C321.048 113.238 325.381 111.429 330.429 111.429C335.476 111.429 339.81 113.238 343.429 116.857L362.857 136.286L432.286 66.5714ZM434.571 50.5714C432.667 52.4762 430.571 53.4286 428.286 53.4286C425.81 53.4286 423.619 52.4762 421.714 50.5714L395.714 24.8571C394 22.9524 393.143 20.7619 393.143 18.2857C393.143 15.8095 394 13.619 395.714 11.7143C397.619 10 399.81 9.14286 402.286 9.14286C404.762 9.14286 406.952 10 408.857 11.7143L434.571 37.7143C436.476 39.4286 437.429 41.5714 437.429 44.1429C437.429 46.7143 436.476 48.8571 434.571 50.5714ZM500.286 116.286C498.19 118 496 118.857 493.714 118.857C491.429 118.857 489.238 118 487.143 116.286L461.429 90.2857C459.524 88.5714 458.571 86.4286 458.571 83.8571C458.571 81.2857 459.524 79.1429 461.429 77.4286C463.143 75.5238 465.286 74.5714 467.857 74.5714C470.429 74.5714 472.571 75.5238 474.286 77.4286L500.286 103.143C502 105.048 502.857 107.238 502.857 109.714C502.857 112.19 502 114.381 500.286 116.286ZM512 64C512 66.6667 511.143 68.8571 509.429 70.5714C507.714 72.2857 505.524 73.1429 502.857 73.1429H475.429C472.762 73.1429 470.571 72.2857 468.857 70.5714C467.143 68.8571 466.286 66.6667 466.286 64C466.286 61.3333 467.143 59.1429 468.857 57.4286C470.571 55.7143 472.762 54.8571 475.429 54.8571H502.857C505.524 54.8571 507.714 55.7143 509.429 57.4286C511.143 59.1429 512 61.3333 512 64ZM457.143 9.14286V36.5714C457.143 39.2381 456.286 41.4286 454.571 43.1429C452.857 44.8571 450.667 45.7143 448 45.7143C445.333 45.7143 443.143 44.8571 441.429 43.1429C439.714 41.4286 438.857 39.2381 438.857 36.5714V9.14286C438.857 6.47619 439.714 4.28571 441.429 2.57143C443.143 0.857143 445.333 0 448 0C450.667 0 452.857 0.857143 454.571 2.57143C456.286 4.28571 457.143 6.47619 457.143 9.14286ZM500.286 24.8571L474.286 50.5714C472.381 52.4762 470.286 53.4286 468 53.4286C465.524 53.4286 463.333 52.4762 461.429 50.5714C459.524 48.8571 458.571 46.7143 458.571 44.1429C458.571 41.5714 459.524 39.4286 461.429 37.7143L487.143 11.7143C489.048 10 491.238 9.14286 493.714 9.14286C496.19 9.14286 498.381 10 500.286 11.7143C502 13.619 502.857 15.8095 502.857 18.2857C502.857 20.7619 502 22.9524 500.286 24.8571Z" fill="#FF0000"/>
</g>
<defs>
<clipPath id="clip0_1782_6">
<rect width="512" height="512" fill="white"/>
</clipPath>
</defs>
</svg>
