<svg width="512" height="512" viewBox="0 0 512 512" fill="none" xmlns="http://www.w3.org/2000/svg">
<g clip-path="url(#clip0_1821_20)">
<path d="M91.428 73.1437C91.428 86.858 85.3328 97.3342 73.1423 104.572V466.287C73.1423 468.763 72.2375 470.906 70.428 472.715C68.6185 474.525 66.4756 475.429 63.9994 475.429H45.7137C43.2375 475.429 41.0947 474.525 39.2852 472.715C37.4756 470.906 36.5709 468.763 36.5709 466.287V104.572C24.3804 97.3342 18.2852 86.858 18.2852 73.1437C18.2852 63.0485 21.8566 54.4294 28.9994 47.2866C36.1423 40.1437 44.7613 36.5723 54.8566 36.5723C64.9518 36.5723 73.5709 40.1437 80.7137 47.2866C87.8566 54.4294 91.428 63.0485 91.428 73.1437ZM511.999 91.4294V309.429C511.999 314.191 510.809 317.858 508.428 320.429C506.047 323.001 502.285 325.62 497.142 328.287C456.19 350.382 421.047 361.429 391.714 361.429C380.095 361.429 368.333 359.334 356.428 355.144C344.523 350.953 334.19 346.382 325.428 341.429C316.666 336.477 305.666 331.906 292.428 327.715C279.19 323.525 265.619 321.429 251.714 321.429C215.142 321.429 170.952 335.334 119.142 363.144C115.904 364.858 112.761 365.715 109.714 365.715C104.761 365.715 100.476 363.906 96.8566 360.287C93.2375 356.668 91.428 352.382 91.428 347.429V135.429C91.428 129.334 94.3804 124.096 100.285 119.715C104.285 117.048 111.809 112.953 122.857 107.429C167.809 84.5723 207.904 73.1437 243.142 73.1437C263.523 73.1437 282.571 75.9056 300.285 81.4294C317.999 86.9532 338.857 95.3342 362.857 106.572C370.095 110.191 378.476 112.001 387.999 112.001C398.285 112.001 409.476 110.001 421.571 106.001C433.666 102.001 444.142 97.5246 452.999 92.5723C461.857 87.6199 470.238 83.1437 478.142 79.1437C486.047 75.1437 491.238 73.1437 493.714 73.1437C498.666 73.1437 502.952 74.9532 506.571 78.5723C510.19 82.1913 511.999 86.477 511.999 91.4294Z" fill="#00FF38"/>
</g>
<defs>
<clipPath id="clip0_1821_20">
<rect width="512" height="512" fill="white"/>
</clipPath>
</defs>
</svg>
