<svg width="512" height="512" viewBox="0 0 512 512" fill="none" xmlns="http://www.w3.org/2000/svg">
<path d="M194.876 443.164V377.932C194.876 361.281 208.474 347.782 225.247 347.782H286.563C294.618 347.782 302.343 350.958 308.039 356.613C313.735 362.267 316.934 369.936 316.934 377.932V443.164C316.883 450.087 319.618 456.743 324.531 461.656C329.444 466.57 336.13 469.333 343.103 469.333H384.936C404.473 469.383 423.227 461.713 437.06 448.017C450.893 434.32 458.667 415.722 458.667 396.326V210.492C458.667 194.825 451.671 179.964 439.566 169.912L297.26 57.0846C272.505 37.302 237.038 37.9407 213.022 58.6016L73.9636 169.912C61.2858 179.668 53.7084 194.573 53.334 210.492V396.137C53.334 436.562 86.3448 469.333 127.066 469.333H167.943C182.427 469.333 194.198 457.732 194.303 443.354L194.876 443.164Z" fill="white"/>
</svg>
